<svg xmlns="http://www.w3.org/2000/svg" viewBox="0 0 107.54 11.7"><defs><style>.cls-1{fill:#fff;}.cls-2{fill:#8593cc;}.cls-3{fill:#ff8c94;}</style></defs><g id="Camada_2" data-name="Camada 2"><g id="Camada_1-2" data-name="Camada 1"><path class="cls-1" d="M0,9.14V7.94l.9-.22V2L0,1.82V.61H4a3.84,3.84,0,0,1,2,.54,3.77,3.77,0,0,1,1.4,1.48,4.64,4.64,0,0,1,.5,2.18V5a4.64,4.64,0,0,1-.5,2.18A3.84,3.84,0,0,1,6,8.61a3.92,3.92,0,0,1-2,.53ZM3,7.58h.94A1.77,1.77,0,0,0,5,7.25a2,2,0,0,0,.67-.92A3.92,3.92,0,0,0,5.87,5V4.8a3.92,3.92,0,0,0-.22-1.38A2.06,2.06,0,0,0,5,2.5a1.77,1.77,0,0,0-1.09-.33H3Z"/><path class="cls-1" d="M11.84,9.26a3.15,3.15,0,0,1-1.63-.4,2.85,2.85,0,0,1-1.08-1.1,3.26,3.26,0,0,1-.38-1.57V6a4,4,0,0,1,.34-1.71,2.62,2.62,0,0,1,1-1.16,3,3,0,0,1,1.62-.42A3,3,0,0,1,13.15,3a2.22,2.22,0,0,1,.91,1,3.71,3.71,0,0,1,.31,1.58V6.63H10.88v0a1.22,1.22,0,0,0,.2.53,1,1,0,0,0,.43.36,1.52,1.52,0,0,0,.68.14A3.46,3.46,0,0,0,13,7.61a4.18,4.18,0,0,0,.81-.29l.47,1.24a3.87,3.87,0,0,1-1,.5A4.24,4.24,0,0,1,11.84,9.26Zm-1-3.9h1.61V5.2a1.93,1.93,0,0,0-.07-.57.6.6,0,0,0-.23-.34.89.89,0,0,0-.94,0,.78.78,0,0,0-.27.41,2.55,2.55,0,0,0-.12.6Z"/><path class="cls-1" d="M17.89,9.26a6.87,6.87,0,0,1-1.4-.13,6.18,6.18,0,0,1-1.17-.38l0-2h1.39l.23.92a1.39,1.39,0,0,0,.32.14,2,2,0,0,0,.46,0,1.29,1.29,0,0,0,.69-.13.42.42,0,0,0,.18-.34A.47.47,0,0,0,18.36,7a2.45,2.45,0,0,0-.91-.3A3.1,3.1,0,0,1,15.81,6a1.77,1.77,0,0,1-.53-1.31,2,2,0,0,1,.25-1,1.79,1.79,0,0,1,.8-.73,3.37,3.37,0,0,1,1.5-.28,7.4,7.4,0,0,1,1.36.12,5.83,5.83,0,0,1,1.07.31V5H18.87l-.18-.82a1.38,1.38,0,0,0-.3-.14A1.53,1.53,0,0,0,18,4a.9.9,0,0,0-.58.14.43.43,0,0,0-.18.36.52.52,0,0,0,.08.26.74.74,0,0,0,.31.24,2.8,2.8,0,0,0,.69.22A4.08,4.08,0,0,1,20,5.93a1.53,1.53,0,0,1,.55,1.3,1.85,1.85,0,0,1-.67,1.49A3.06,3.06,0,0,1,17.89,9.26Z"/><path class="cls-1" d="M21.12,9.14V7.94l.74-.19V4.2L21,4V2.8h2.94v5l.74.19v1.2ZM21.8,1.6V0h2.12V1.6Z"/><path class="cls-1" d="M27.89,11.7a6.32,6.32,0,0,1-1.14-.12,4.33,4.33,0,0,1-1.12-.36L26,9.8a5.48,5.48,0,0,0,.93.28,4,4,0,0,0,.86.1,1.17,1.17,0,0,0,.93-.35A1.4,1.4,0,0,0,29,8.88v-.3a1.74,1.74,0,0,1-1.41.68,2.24,2.24,0,0,1-1.32-.39,2.41,2.41,0,0,1-.84-1.1,4.28,4.28,0,0,1-.29-1.66V6a4.83,4.83,0,0,1,.28-1.73,2.64,2.64,0,0,1,.83-1.15,2,2,0,0,1,1.28-.42,1.75,1.75,0,0,1,.94.24,2.26,2.26,0,0,1,.66.68l.13-.8H31V8.89a2.8,2.8,0,0,1-.39,1.48,2.54,2.54,0,0,1-1.09,1A3.74,3.74,0,0,1,27.89,11.7Zm.28-4a1.14,1.14,0,0,0,.46-.09A.64.64,0,0,0,29,7.34V4.69a.75.75,0,0,0-.34-.32,1,1,0,0,0-.46-.11.8.8,0,0,0-.59.21,1.33,1.33,0,0,0-.32.6,4,4,0,0,0-.1.91v.13a2.57,2.57,0,0,0,.22,1.16A.82.82,0,0,0,28.17,7.69ZM30.8,4.22,29.87,2.8h1.89V4Z"/><path class="cls-1" d="M32.15,9.14V7.94l.74-.19V4.2L32,4V2.8h2.82l.07.89A2.29,2.29,0,0,1,35.68,3a2.05,2.05,0,0,1,1-.27,1.72,1.72,0,0,1,1.4.61,2.87,2.87,0,0,1,.52,1.91V7.75l.74.19v1.2H36V7.94l.6-.19V5.2a1,1,0,0,0-.21-.73.79.79,0,0,0-.59-.21,1.07,1.07,0,0,0-.49.1,1,1,0,0,0-.35.31V7.75l.52.19v1.2Z"/><path class="cls-1" d="M42.87,9.26a3.14,3.14,0,0,1-1.62-.4,2.72,2.72,0,0,1-1.08-1.1,3.15,3.15,0,0,1-.38-1.57V6a4.21,4.21,0,0,1,.33-1.71,2.64,2.64,0,0,1,1-1.16A3.34,3.34,0,0,1,44.19,3a2.2,2.2,0,0,1,.9,1,3.56,3.56,0,0,1,.31,1.58V6.63H41.92v0a1.36,1.36,0,0,0,.2.53,1.17,1.17,0,0,0,.43.36,1.59,1.59,0,0,0,.68.14A3.48,3.48,0,0,0,44,7.61a4.7,4.7,0,0,0,.81-.29l.47,1.24a3.94,3.94,0,0,1-1,.5A4.2,4.2,0,0,1,42.87,9.26Zm-.95-3.9h1.61V5.2a1.93,1.93,0,0,0-.07-.57.6.6,0,0,0-.23-.34.75.75,0,0,0-.45-.12.78.78,0,0,0-.5.15.92.92,0,0,0-.27.41,4.23,4.23,0,0,0-.12.6Z"/><path class="cls-1" d="M48.39,9.26a2.13,2.13,0,0,1-1.28-.39,2.44,2.44,0,0,1-.82-1.1A4.48,4.48,0,0,1,46,6.11V6a4.83,4.83,0,0,1,.28-1.73,2.7,2.7,0,0,1,.82-1.15,2,2,0,0,1,1.26-.42,1.7,1.7,0,0,1,.87.21,2.06,2.06,0,0,1,.64.58V1.39L49,1.21V0h2.95V7.75l.74.19v1.2H50.16L50,8.36a2,2,0,0,1-.68.67A1.74,1.74,0,0,1,48.39,9.26ZM49,7.69a1.29,1.29,0,0,0,.48-.1,1,1,0,0,0,.37-.3V4.75a1,1,0,0,0-.36-.36A.86.86,0,0,0,49,4.26a.77.77,0,0,0-.57.22,1.31,1.31,0,0,0-.31.6,4,4,0,0,0-.1.9v.13a2.44,2.44,0,0,0,.22,1.16A.76.76,0,0,0,49,7.69Z"/><path class="cls-2" d="M53,9.14V7.94l.88-.19V2L53,1.82V.61h3.86a4.59,4.59,0,0,1,2.51.59A2,2,0,0,1,60.25,3,2.09,2.09,0,0,1,60,4.05a1.8,1.8,0,0,1-.89.72,1.92,1.92,0,0,1,.84.38,1.64,1.64,0,0,1,.47.64,2.21,2.21,0,0,1,.15.82A2.23,2.23,0,0,1,59.7,8.5a3.94,3.94,0,0,1-2.44.64Zm2.94-5h.83a2.08,2.08,0,0,0,1.09-.23.81.81,0,0,0,.36-.72.88.88,0,0,0-.34-.78,1.74,1.74,0,0,0-1-.24h-.92Zm0,3.43h1.35a1.47,1.47,0,0,0,.92-.24.87.87,0,0,0,.31-.74A1.38,1.38,0,0,0,58.37,6,.78.78,0,0,0,58,5.63a1.51,1.51,0,0,0-.65-.12H55.91Z"/><path class="cls-2" d="M63,11.7a3.27,3.27,0,0,1-.54,0,4.09,4.09,0,0,1-.56-.13l.25-1.47.22,0,.23,0a1.53,1.53,0,0,0,.66-.14.62.62,0,0,0,.37-.42l.06-.23-2-5.2L60.81,4V2.8h3.81V4l-.79.11.85,2.57v0h0l1-2.63L65,4V2.8h3.47V4l-.75.1-2.38,6a3.34,3.34,0,0,1-.45.8,2.14,2.14,0,0,1-.75.6A2.52,2.52,0,0,1,63,11.7Z"/><path class="cls-3" d="M70.68,9.14V7.94l.89-.19V2.2H70.25l0,.92H68.64V.61h7.93V3.12H75l0-.92H73.62V7.75l.89.19v1.2Z"/><path class="cls-3" d="M79.32,9.26a2,2,0,0,1-1.54-.62,2.75,2.75,0,0,1-.57-1.92V4.2L76.54,4V2.8h2.73V6.73a1.11,1.11,0,0,0,.2.71.68.68,0,0,0,.59.25,1.2,1.2,0,0,0,.45-.09,1.12,1.12,0,0,0,.4-.25V4.2L80.22,4V2.8H83v5l.79.19v1.2H81.18l-.13-.72a2.22,2.22,0,0,1-.74.63A2.28,2.28,0,0,1,79.32,9.26Z"/><path class="cls-3" d="M84.17,9.14V7.94l.74-.19V4.2L84,4V2.8h2.82l.07.89A2.2,2.2,0,0,1,87.7,3a2.05,2.05,0,0,1,1-.27,1.72,1.72,0,0,1,1.4.61,2.87,2.87,0,0,1,.52,1.91V7.75l.74.19v1.2H88V7.94l.6-.19V5.2a1,1,0,0,0-.21-.73.79.79,0,0,0-.59-.21,1.07,1.07,0,0,0-.49.1,1.15,1.15,0,0,0-.36.31V7.75l.53.19v1.2Z"/><path class="cls-3" d="M91.75,9.14V7.94l.74-.19V4.2L91.61,4V2.8h2.94v5l.74.19v1.2Zm.68-7.54V0h2.12V1.6Z"/><path class="cls-3" d="M98.77,9.26a3.16,3.16,0,0,1-1.63-.41,2.79,2.79,0,0,1-1-1.14,3.71,3.71,0,0,1-.36-1.66V5.91a3.61,3.61,0,0,1,.37-1.68,3,3,0,0,1,1.06-1.14,3,3,0,0,1,1.58-.41A4,4,0,0,1,100.3,3a4.2,4.2,0,0,1,1,.57l0,2H99.76l-.24-1.15a.88.88,0,0,0-.27-.16A.94.94,0,0,0,99,4.15a1.23,1.23,0,0,0-.7.19,1.1,1.1,0,0,0-.37.58,3.87,3.87,0,0,0-.11,1v.14a2.62,2.62,0,0,0,.15,1,1.14,1.14,0,0,0,.38.52.84.84,0,0,0,.47.15.77.77,0,0,0,.57-.19A1.09,1.09,0,0,0,99.67,7h1.73l0,0A3.67,3.67,0,0,1,101,8.26a1.83,1.83,0,0,1-.83.75A3.18,3.18,0,0,1,98.77,9.26Z"/><path class="cls-3" d="M104.92,9.26a6.77,6.77,0,0,1-1.39-.13,6,6,0,0,1-1.17-.38l0-2h1.39l.24.92a1.29,1.29,0,0,0,.31.14,2.12,2.12,0,0,0,.47,0,1.22,1.22,0,0,0,.68-.13.4.4,0,0,0,.19-.34A.47.47,0,0,0,105.4,7a2.52,2.52,0,0,0-.92-.3A3.13,3.13,0,0,1,102.84,6a1.76,1.76,0,0,1-.52-1.31,2.06,2.06,0,0,1,.24-1,1.87,1.87,0,0,1,.81-.73,3.32,3.32,0,0,1,1.5-.28,7.48,7.48,0,0,1,1.36.12,5.7,5.7,0,0,1,1.06.31V5H105.9l-.17-.82a1.26,1.26,0,0,0-.31-.14A1.48,1.48,0,0,0,105,4a.89.89,0,0,0-.57.14.43.43,0,0,0-.18.36.51.51,0,0,0,.07.26.78.78,0,0,0,.32.24,2.57,2.57,0,0,0,.68.22,4.07,4.07,0,0,1,1.64.67,1.55,1.55,0,0,1,.54,1.3,1.82,1.82,0,0,1-.67,1.49A3,3,0,0,1,104.92,9.26Z"/></g></g></svg>