<svg xmlns="http://www.w3.org/2000/svg" viewBox="0 0 196.64 33.21"><defs><style>.cls-1{fill:#fff;}.cls-2{fill:#8593cc;}.cls-3{fill:#ff8c94;}</style></defs><g id="Camada_2" data-name="Camada 2"><g id="Camada_1-2" data-name="Camada 1"><path class="cls-1" d="M0,25.94v-3.4L2.51,22V5.69L0,5.16V1.73H11.41V5.16l-3.06.53V21.47H14.1l.14-3.38h4.45v7.85Z"/><path class="cls-1" d="M26.08,26.29a6.12,6.12,0,0,1-4.26-1.48,5,5,0,0,1-1.65-3.94,5.07,5.07,0,0,1,.91-3,5.84,5.84,0,0,1,2.73-2,12,12,0,0,1,4.56-.74h1.88V14.05a2.79,2.79,0,0,0-.61-1.83,2.35,2.35,0,0,0-1.95-.76,3.86,3.86,0,0,0-1.05.14,2.9,2.9,0,0,0-.89.41l-.4,2.29H21.24l-.08-5a24.79,24.79,0,0,1,3.2-1.18,12.75,12.75,0,0,1,3.73-.5A9.28,9.28,0,0,1,33.93,9.3a5.77,5.77,0,0,1,2.16,4.82v6.64c0,.25,0,.5,0,.74a3.86,3.86,0,0,0,.07.7l1.95.34v3.4H31.3a6.86,6.86,0,0,1-.47-.79,4.08,4.08,0,0,1-.34-1,6.59,6.59,0,0,1-1.83,1.58A5.36,5.36,0,0,1,26.08,26.29Zm1.79-4.12a3.44,3.44,0,0,0,1.28-.26,3,3,0,0,0,1.1-.77v-2.6H28.44a2.86,2.86,0,0,0-1.82.52A1.65,1.65,0,0,0,26,20.42a1.62,1.62,0,0,0,.53,1.28A2,2,0,0,0,27.87,22.17Z"/><path class="cls-1" d="M39,25.94v-3.4l2.1-.54V11.91l-2.5-.53V8h8l.2,2.51a6.44,6.44,0,0,1,2.2-2.09,5.85,5.85,0,0,1,3-.75,5,5,0,0,1,4,1.71q1.47,1.71,1.47,5.44V22l2.09.54v3.4H49.93v-3.4L51.62,22V14.75A2.9,2.9,0,0,0,51,12.7a2.17,2.17,0,0,0-1.66-.61,3.15,3.15,0,0,0-1.4.29,2.88,2.88,0,0,0-1,.87V22l1.49.54v3.4Z"/><path class="cls-1" d="M67.32,26.29a6,6,0,0,1-3.63-1.11A6.93,6.93,0,0,1,61.36,22a12.55,12.55,0,0,1-.81-4.71V17a13.61,13.61,0,0,1,.82-4.91,7.4,7.4,0,0,1,2.32-3.28,5.63,5.63,0,0,1,3.57-1.17,4.88,4.88,0,0,1,2.47.59,5.79,5.79,0,0,1,1.82,1.65V4L69,3.43V0h8.36V22l2.1.54v3.4H72.33l-.43-2.22A6,6,0,0,1,70,25.64,5.23,5.23,0,0,1,67.32,26.29Zm1.82-4.47a3.28,3.28,0,0,0,1.36-.28,2.62,2.62,0,0,0,1-.85v-7.2a2.93,2.93,0,0,0-1-1,2.57,2.57,0,0,0-1.35-.36,2.17,2.17,0,0,0-1.61.62,3.57,3.57,0,0,0-.89,1.71A10.23,10.23,0,0,0,66.39,17v.35a7.43,7.43,0,0,0,.6,3.32A2.2,2.2,0,0,0,69.14,21.82Z"/><path class="cls-1" d="M80.41,25.94v-3.4L82.52,22V11.91L80,11.38V8h8.35V22l2.1.54v3.4Zm2-21.4V0h6V4.54Z"/><path class="cls-1" d="M91.37,25.94v-3.4l2.1-.54V11.91L91,11.38V8h8l.2,2.51a6.44,6.44,0,0,1,2.2-2.09,5.85,5.85,0,0,1,3-.75,5,5,0,0,1,4,1.71q1.47,1.71,1.47,5.44V22l2.09.54v3.4h-9.64v-3.4L104,22V14.75a2.9,2.9,0,0,0-.58-2.05,2.17,2.17,0,0,0-1.66-.61,3.15,3.15,0,0,0-1.4.29,3,3,0,0,0-1,.87V22l1.5.54v3.4Z"/><path class="cls-1" d="M120.79,33.21a16.58,16.58,0,0,1-3.22-.35,13.08,13.08,0,0,1-3.2-1l.93-4a15.25,15.25,0,0,0,2.66.79,11.7,11.7,0,0,0,2.43.28,3.28,3.28,0,0,0,2.64-1,4,4,0,0,0,.84-2.7v-.85a5.41,5.41,0,0,1-1.74,1.44,5,5,0,0,1-2.27.5,6.33,6.33,0,0,1-3.76-1.11A6.88,6.88,0,0,1,113.72,22a12.35,12.35,0,0,1-.83-4.71V17a13.4,13.4,0,0,1,.82-4.91A7.34,7.34,0,0,1,116,8.79a5.81,5.81,0,0,1,3.64-1.17,4.9,4.9,0,0,1,2.66.68,5.92,5.92,0,0,1,1.88,1.91L124.58,8h5.14V25.23a7.88,7.88,0,0,1-1.09,4.19,7.23,7.23,0,0,1-3.09,2.79A10.49,10.49,0,0,1,120.79,33.21Zm.78-11.39a3.5,3.5,0,0,0,1.33-.24,2.24,2.24,0,0,0,1-.74V13.3a2.46,2.46,0,0,0-1-.9,2.78,2.78,0,0,0-1.33-.31,2.29,2.29,0,0,0-1.67.61,3.58,3.58,0,0,0-.9,1.7,10.87,10.87,0,0,0-.27,2.58v.35a7.27,7.27,0,0,0,.62,3.32A2.28,2.28,0,0,0,121.57,21.82ZM129,12l-2.63-4h5.36v3.44Z"/><path class="cls-2" d="M134.23,25.94V21.12H140v4.82Z"/><path class="cls-3" d="M141.7,25.94v-2.4l1.77-.37V11.67l-1.77-.37V8.88H150a8.1,8.1,0,0,1,3.54.72,5.55,5.55,0,0,1,2.31,7.9,5.32,5.32,0,0,1-2.31,2,8.25,8.25,0,0,1-3.54.71h-2.42v3l1.77.37v2.4ZM147.58,17H150a2.3,2.3,0,0,0,2.55-2.44,2.61,2.61,0,0,0-.65-1.83A2.43,2.43,0,0,0,150,12h-2.42Z"/><path class="cls-3" d="M161.82,26.19a4.33,4.33,0,0,1-3-1,3.85,3.85,0,0,1-.52-4.88,4.16,4.16,0,0,1,1.92-1.43,8.58,8.58,0,0,1,3.22-.52h1.32v-.75a2,2,0,0,0-.43-1.3,1.69,1.69,0,0,0-1.37-.53,2.57,2.57,0,0,0-.75.1,2.06,2.06,0,0,0-.62.28l-.28,1.62h-2.9l-.06-3.53a19.49,19.49,0,0,1,2.26-.83,9.3,9.3,0,0,1,2.63-.35,6.5,6.5,0,0,1,4.11,1.19,4,4,0,0,1,1.53,3.39v5.21a3.87,3.87,0,0,0,.05.49l1.38.23v2.4H165.5a4.15,4.15,0,0,1-.33-.56,2.77,2.77,0,0,1-.24-.7,4.44,4.44,0,0,1-1.29,1.11A3.66,3.66,0,0,1,161.82,26.19Zm1.27-2.91a2.4,2.4,0,0,0,.89-.18,2.11,2.11,0,0,0,.78-.54V20.73h-1.27a2,2,0,0,0-1.29.36,1.18,1.18,0,0,0-.45,1,1.15,1.15,0,0,0,.38.91A1.44,1.44,0,0,0,163.09,23.28Z"/><path class="cls-3" d="M176.77,31.07a12.54,12.54,0,0,1-2.27-.25,8.74,8.74,0,0,1-2.25-.72l.66-2.83a11.45,11.45,0,0,0,1.87.56,9.3,9.3,0,0,0,1.71.19,2.28,2.28,0,0,0,1.86-.7,2.81,2.81,0,0,0,.59-1.9v-.6a3.77,3.77,0,0,1-1.22,1,3.46,3.46,0,0,1-1.6.36,4.46,4.46,0,0,1-2.65-.78,4.92,4.92,0,0,1-1.68-2.21,8.73,8.73,0,0,1-.58-3.33v-.24a9.58,9.58,0,0,1,.57-3.46,5.21,5.21,0,0,1,1.65-2.31A4.07,4.07,0,0,1,176,13a3.47,3.47,0,0,1,1.87.48,4.19,4.19,0,0,1,1.33,1.35l.26-1.6h3.62V25.44a5.57,5.57,0,0,1-.77,2.95,5.15,5.15,0,0,1-2.18,2A7.42,7.42,0,0,1,176.77,31.07Zm.56-8a2.52,2.52,0,0,0,.93-.17,1.61,1.61,0,0,0,.68-.52V17a1.67,1.67,0,0,0-.68-.64,1.93,1.93,0,0,0-.93-.22,1.63,1.63,0,0,0-1.18.43,2.47,2.47,0,0,0-.64,1.2,8.07,8.07,0,0,0-.19,1.82v.24a5.25,5.25,0,0,0,.43,2.34A1.63,1.63,0,0,0,177.33,23Zm5.26-6.94-1.85-2.84h3.77v2.43Z"/><path class="cls-3" d="M191.58,26.19a6.46,6.46,0,0,1-3.26-.8,5.68,5.68,0,0,1-2.15-2.2A6.44,6.44,0,0,1,185.4,20V19.6a8.22,8.22,0,0,1,.68-3.42,5.31,5.31,0,0,1,2-2.32,5.78,5.78,0,0,1,3.22-.83,6,6,0,0,1,2.92.66,4.34,4.34,0,0,1,1.81,2,7.26,7.26,0,0,1,.62,3.16v2.12h-7l0,.08a2.67,2.67,0,0,0,.41,1.06,2.07,2.07,0,0,0,.86.73,3.08,3.08,0,0,0,1.36.27,6.79,6.79,0,0,0,1.56-.18,8.24,8.24,0,0,0,1.63-.58l.93,2.48a7.33,7.33,0,0,1-2.08,1A8.76,8.76,0,0,1,191.58,26.19Zm-1.91-7.82h3.22v-.3a4.12,4.12,0,0,0-.14-1.14,1.27,1.27,0,0,0-.46-.69,1.83,1.83,0,0,0-1.89.07,1.6,1.6,0,0,0-.54.82,6.09,6.09,0,0,0-.24,1.19Z"/></g></g></svg>